:SAMPLES-PER-SECOND 30
:FULLY-SPECIFIED
:DEGREES
209
root  19.6075 35.4793 9.43053 -172.614 9.20235 -178.443
RightUpLeg  -7.9752 -19.7413 -31.1217
RightLeg  0.471811 -7.39791 -3.92083
RightFoot  31.5805 -11.2897 28.7715
RightToes  2.32829e-010 0 -3.6325e-017
Spine  18.9623 1.88403 -2.15387
Spine1  17.0919 1.23656 0.895482
HEad  -24.2319 17.0773 -10.1761
LeftShoulder1  1.01834 -0.406422 -19.5165
LeftArm  21.0628 9.26319 -54.5955
LeftForeArm  107.863 -78.9249 -111.743
LeftHand  -1.74106 -3.46837 22.8347
RightShoulder  0.8692 0.0552804 17.9582
RightArm  -5.60253 -16.7254 54.7348
RightForeArm  40.0446 77.7913 67.3328
RightHand  -0.897266 2.67741 -13.1041
LeftUpLeg  -38.314 2.51695 8.00473
LeftLeg  50.3869 5.5285 7.53774
LeftFoot  -14.5102 -0.0865905 -6.24149
LeftToes  -5.54824e-011 -8.71001e-011 8.3852e-012
210
root  18.3987 35.3683 9.08902 -175.492 13.4624 -178.268
RightUpLeg  -7.61062 -17.242 -31.3308
RightLeg  4.81451 -12.3787 -5.23089
RightFoot  23.826 -8.16376 25.9282
RightToes  2.32829e-010 0 -3.6325e-017
Spine  19.2138 2.48694 -5.30841
Spine1  18.3069 0.826045 2.01761
HEad  -23.435 20.2608 -10.2279
LeftShoulder1  1.28573 -1.4076 -19.7119
LeftArm  19.2822 6.89616 -54.8995
LeftForeArm  81.2354 -79.7009 -85.3851
LeftHand  -1.72714 -2.56275 25.1229
RightShoulder  0.841675 0.0415768 17.2306
RightArm  -1.12768 -16.4801 55.9335
RightForeArm  45.1139 78.2419 77.4058
RightHand  -0.847899 2.1048 -13.2873
LeftUpLeg  -34.6076 3.94459 6.09626
LeftLeg  52.036 6.49729 9.32896
LeftFoot  -17.6854 -0.172783 -5.05855
LeftToes  -5.54824e-011 -8.71001e-011 8.3852e-012
211
root  17.3021 35.5101 8.82437 -177.046 16.8973 -178.746
RightUpLeg  -8.94467 -8.41617 -31.3823
RightLeg  13.1011 -21.7523 -7.96323
RightFoot  16.9589 -5.95084 23.7984
RightToes  2.32829e-010 0 -3.6325e-017
Spine  18.6303 2.53509 -7.67949
Spine1  18.9495 0.372692 2.1489
HEad  -23.2647 22.3726 -10.5062
LeftShoulder1  1.49924 -2.41362 -18.7897
LeftArm  16.836 6.5401 -55.541
LeftForeArm  69.1635 -79.283 -73.2634
LeftHand  -1.65213 -1.67723 26.9343
RightShoulder  0.853886 0.279932 15.9229
RightArm  3.43825 -15.1761 57.4427
RightForeArm  53.2824 78.3715 89.4089
RightHand  -0.833865 1.76545 -13.6647
LeftUpLeg  -32.2384 6.30405 3.45172
LeftLeg  51.8423 7.70957 10.849
LeftFoot  -18.2521 -0.0344364 -2.32411
LeftToes  -5.54824e-011 -8.71001e-011 8.3852e-012
212
root  16.3315 36.0246 8.62898 -177.329 19.3578 -178.909
RightUpLeg  -10.6742 -1.33561 -29.2069
RightLeg  21.287 -25.1093 -10.193
RightFoot  12.5195 -4.68245 22.344
RightToes  2.32829e-010 0 -3.6325e-017
Spine  17.4073 2.0913 -8.23285
Spine1  19.2557 0.165629 1.2917
HEad  -23.1567 23.3842 -11.2852
LeftShoulder1  1.48533 -2.6023 -17.6881
LeftArm  15.2511 7.52203 -56.6725
LeftForeArm  72.7729 -79.439 -76.8428
LeftHand  -1.68545 -1.44087 28.3603
RightShoulder  0.805681 0.258235 14.6437
RightArm  7.41739 -13.8477 58.9679
RightForeArm  67.3447 77.9176 104.994
RightHand  -0.727932 1.24505 -12.8333
LeftUpLeg  -30.1771 8.21256 1.42961
LeftLeg  48.9102 9.37859 11.7796
LeftFoot  -16.9891 0.0520923 -1.06829
LeftToes  -5.54824e-011 -8.71001e-011 8.3852e-012
213
root  15.4329 36.8973 8.52794 -176.959 20.8985 -178.713
RightUpLeg  -11.7833 -2.15112 -24.0438
RightLeg  25.9589 -18.3558 -9.67057
RightFoot  8.43717 -3.87055 22.2997
RightToes  2.32829e-010 0 -3.6325e-017
Spine  16.3131 1.57794 -7.52076
Spine1  19.3129 0.0921282 0.531349
HEad  -22.6568 23.7847 -12.4442
LeftShoulder1  1.31709 -2.02961 -17.1302
LeftArm  14.9574 8.84107 -58.0424
LeftForeArm  80.9963 -79.681 -85.081
LeftHand  -1.79815 -1.73958 28.9829
RightShoulder  0.706458 -0.0736715 13.7568
RightArm  10.4317 -12.6396 60.3362
RightForeArm  79.7754 76.6716 118.815
RightHand  -0.535473 0.35697 -10.8673
LeftUpLeg  -27.6845 8.96661 0.190266
LeftLeg  43.0173 10.5042 10.7431
LeftFoot  -14.0207 0.0604133 -0.949529
LeftToes  -5.54824e-011 -8.71001e-011 8.3852e-012
214
root  14.5751 38.031 8.53055 -176.314 21.6164 -178.6
RightUpLeg  -11.9678 -4.10608 -18.2442
RightLeg  28.6464 -12.7647 -7.68712
RightFoot  4.57318 -3.20406 22.8631
RightToes  2.32829e-010 0 -3.6325e-017
Spine  15.5879 1.17761 -6.30649
Spine1  19.0346 0.0360169 0.307575
HEad  -21.8258 23.7866 -13.0946
LeftShoulder1  1.15449 -1.4212 -16.7307
LeftArm  15.3651 10.2994 -59.1905
LeftForeArm  87.3491 -79.6994 -91.7711
LeftHand  -1.77304 -1.86513 28.0991
RightShoulder  0.64339 -0.293623 13.1528
RightArm  12.5323 -11.9227 61.7378
RightForeArm  86.2858 75.2757 127.326
RightHand  -0.371648 -0.464151 -8.77391
LeftUpLeg  -25.0979 9.54497 -0.976166
LeftLeg  35.179 11.302 8.80021
LeftFoot  -8.14128 0.0115943 0.528011
LeftToes  -5.54824e-011 -8.71001e-011 8.3852e-012
215
root  13.778 39.182 8.59541 -175.308 21.6365 -178.976
RightUpLeg  -11.6876 -6.61398 -12.8135
RightLeg  29.7358 -10.3085 -6.54218
RightFoot  2.44452 -2.84575 23.3833
RightToes  2.32829e-010 0 -3.6325e-017
Spine  14.719 0.764001 -5.0862
Spine1  18.4737 -0.0185775 0.0802238
HEad  -20.823 23.3236 -12.7683
LeftShoulder1  1.05813 -1.1403 -16.0169
LeftArm  16.0295 12.1896 -59.8614
LeftForeArm  93.5999 -79.5507 -98.7534
LeftHand  -1.58748 -1.58597 26.2519
RightShoulder  0.619857 -0.329901 12.579
RightArm  14.2931 -12.02 63.1433
RightForeArm  91.2693 74.0658 132.781
RightHand  -0.295383 -0.704309 -7.30272
LeftUpLeg  -23.3514 11.5506 -2.69127
LeftLeg  26.9933 10.6447 6.23285
LeftFoot  0.318792 -0.155504 1.6614
LeftToes  -5.54824e-011 -8.71001e-011 8.3852e-012
216
root  13.0335 40.0579 8.68445 -174.099 21.3247 -179.666
RightUpLeg  -11.1039 -8.86325 -8.25088
RightLeg  29.0124 -9.37653 -5.81854
RightFoot  2.60744 -3.09484 25.0336
RightToes  2.32829e-010 0 -3.6325e-017
Spine  13.1649 0.317617 -3.90697
Spine1  18.0576 -0.0429621 -0.506986
HEad  -19.772 22.4287 -12.15
LeftShoulder1  1.01701 -1.05347 -15.5056
LeftArm  16.9303 14.3137 -59.8015
LeftForeArm  100.616 -79.2306 -106.263
LeftHand  -1.50264 -1.49141 25.2364
RightShoulder  0.561973 -0.547345 11.9999
RightArm  16.2807 -12.4041 64.0971
RightForeArm  98.684 72.7805 137.768
RightHand  -0.271796 -0.47472 -6.41383
LeftUpLeg  -22.6773 14.7642 -4.39736
LeftLeg  20.1644 5.26178 2.45227
LeftFoot  8.83335 0.590197 -3.31013
LeftToes  -5.54824e-011 -8.71001e-011 8.3852e-012
217
root  12.2797 40.5026 8.75392 -173.193 21.365 179.922
RightUpLeg  -9.93905 -10.7676 -4.47819
RightLeg  26.9585 -8.10362 -4.68545
RightFoot  4.06974 -3.9481 28.7903
RightToes  2.32829e-010 0 -3.6325e-017
Spine  10.9515 0.0769075 -2.39672
Spine1  18.3518 0.0968961 -1.03089
HEad  -18.7778 21.3637 -11.9638
LeftShoulder1  1.03195 -1.0549 -15.8515
LeftArm  17.7914 16.0116 -58.9458
LeftForeArm  104.75 -79.0027 -110.189
LeftHand  -1.6682 -2.07527 25.7913
RightShoulder  0.446063 -1.09402 11.4724
RightArm  18.2943 -12.2836 64.2188
RightForeArm  106.33 71.4422 142.08
RightHand  -0.229632 -0.401418 -5.32356
LeftUpLeg  -22.4425 16.3523 -4.47805
LeftLeg  16.5916 -3.1647 -1.01152
LeftFoot  13.6603 3.07055 -14.3642
LeftToes  -5.54824e-011 -8.71001e-011 8.3852e-012
